PathFileType	4	(X/Y/Z)	C:\Users\WrightLab\Desktop\Jo\P2_Trial40.trc
DataRate	CameraRate	NumFrames	NumMarkers	Units	OrigDataRate	OrigDataStartFrame	OrigNumFrames
100.00	100.00	       13	19	mm	100.00	180	       479
Frame#	Time	Headset_Front			Headset_Back			Headset_Left			Headset_Right			Left_Shoulder			Right_Shoulder			Sternum			C7			Left Elbow			Right Elbow			Left Wrist			Right Wrist			Left ASIS			Right ASIS			S2			Left Knee			Right Knee			Left Ankle			Right Ankle			
		X1	Y1	Z1	X2	Y2	Z2	X3	Y3	Z3	X4	Y4	Z4	X5	Y5	Z5	X6	Y6	Z6	X7	Y7	Z7	X8	Y8	Z8	X9	Y9	Z9	X10	Y10	Z10	X11	Y11	Z11	X12	Y12	Z12	X13	Y13	Z13	X14	Y14	Z14	X15	Y15	Z15	X16	Y16	Z16	X17	Y17	Z17	X18	Y18	Z18	X19	Y19	Z19	

180	1.790	-234.86644	1461.37280	463.53107	-339.12390	1668.28015	263.11630	-208.27997	1553.82361	278.96851	-356.95013	1549.17798	457.42465	-245.62254	1423.48840	176.72920	-494.21063	1408.52539	392.87848	-325.14572	1297.73840	332.44174	-454.12524	1410.07251	212.15552	-188.47159	1072.32214	68.28654	-619.97876	1106.23853	483.36130	-189.28864	833.71210	24.96572	-564.74603	918.72552	630.38953	-253.74471	1004.69659	316.65091	-362.15314	974.15820	394.08569	-437.64368	926.70398	129.18349	-155.05605	464.55359	311.14343	-581.38287	516.02429	285.96613	-48.53714	137.61151	390.66559	-706.90820	146.55566	132.19353	
181	1.800	-226.39734	1463.66345	472.38159	-331.85962	1669.92700	270.37463	-200.76390	1555.90173	286.48730	-348.39923	1551.61169	464.98639	-237.78297	1425.47107	183.86403	-484.96259	1410.31543	400.66638	-316.69135	1299.26526	340.58414	-446.32446	1411.62878	220.76285	-181.35095	1073.79871	76.98123	-613.32465	1108.04663	489.99762	-181.05376	835.85516	34.06643	-555.09253	917.62335	631.42963	-245.09117	1006.88544	324.04880	-352.51050	977.06287	402.34302	-429.72043	927.58472	138.40019	-146.27345	467.34921	316.85782	-567.33008	516.13287	299.77002	-49.73455	134.89323	391.18744	-696.67340	156.04356	145.12582	
182	1.810	-218.73810	1465.71484	477.36368	-324.77512	1671.49976	277.67328	-192.57286	1558.06335	294.06293	-340.32437	1553.80737	472.37363	-230.67906	1427.40271	191.19934	-476.89700	1412.41382	409.04114	-308.34528	1301.79712	348.12933	-438.93338	1413.76001	228.83607	-173.92830	1075.23767	85.20480	-605.26483	1108.92480	494.87018	-172.09291	835.38873	48.87887	-545.59802	916.27502	632.45642	-236.00401	1009.53949	329.75922	-343.20590	978.91675	408.24692	-423.13300	929.16803	146.50192	-137.53372	469.64957	321.39758	-552.65302	516.41742	310.78299	-51.72295	132.41536	391.17407	-685.20959	165.39479	158.59676	
183	1.820	-210.63635	1468.49731	487.15717	-316.10403	1673.27917	284.74127	-184.62628	1560.13074	302.30402	-332.08643	1555.71448	479.76901	-224.05688	1428.96606	198.46269	-468.73129	1414.77100	417.05246	-300.73978	1304.05127	355.30954	-431.71243	1415.92798	236.38075	-166.22673	1076.81885	94.66927	-598.48059	1110.33740	500.37045	-163.21788	837.60266	61.37185	-536.41302	915.16559	632.72498	-227.65399	1011.62579	336.63623	-334.79846	981.34351	415.76178	-417.03809	930.89899	155.14595	-133.06136	470.63013	325.87283	-537.55292	515.79376	324.53250	-53.98839	130.67389	390.57922	-673.47070	174.46495	170.66209	
184	1.830	-203.21376	1470.80249	493.36716	-309.33038	1675.72241	292.17413	-177.39088	1562.23853	308.77115	-325.55170	1558.12268	487.61325	-216.82591	1431.14258	205.49068	-461.75638	1417.08386	425.18988	-292.61295	1306.44702	363.20273	-424.20639	1417.77258	244.66876	-156.72176	1078.12012	104.11861	-590.51575	1111.48523	505.81271	-152.10428	839.17767	70.53987	-527.47504	912.96753	633.51416	-218.58797	1014.05054	343.33704	-325.28461	983.14288	422.81845	-410.28836	932.44489	163.42383	-125.43291	472.50952	328.49951	-522.99249	515.38568	338.68961	-58.13052	127.43320	392.29437	-658.34174	182.36227	186.59853	
185	1.840	-194.89073	1473.24670	501.25818	-301.17606	1677.26074	299.58939	-170.75272	1564.13782	315.62613	-317.66376	1560.25940	495.19177	-209.94106	1433.23083	212.78394	-453.90033	1418.94519	432.88174	-284.97461	1308.56250	371.47232	-417.42587	1420.14551	252.30009	-147.80928	1080.50415	112.81525	-583.13391	1112.74133	510.89484	-143.02885	840.43781	84.06413	-519.62744	911.36206	633.80597	-211.90009	1015.52991	349.38757	-317.69077	984.75824	429.03561	-403.69113	934.25421	171.72131	-118.06483	473.96362	331.38422	-507.71307	514.10638	352.66580	-58.77007	127.58872	390.89734	-643.60913	190.53661	201.50031	
186	1.850	-188.15215	1475.58691	508.90018	-294.88626	1679.61865	307.50848	-163.47163	1565.95459	323.87466	-309.33240	1562.44287	502.70831	-203.08952	1434.94189	220.64061	-447.32660	1420.95898	440.44827	-278.02151	1310.92065	379.71417	-410.31085	1422.08594	259.92746	-138.67557	1082.11609	121.73940	-575.47424	1113.77014	515.79449	-132.34372	842.01483	92.83662	-511.27863	909.32733	633.56488	-204.28999	1017.41010	356.40891	-309.85056	986.61426	436.43179	-397.40964	936.08496	179.36105	-110.79460	474.65225	332.82117	-492.75198	513.38965	367.42581	-63.58205	126.38884	391.00641	-628.28735	198.61694	216.03644	
187	1.860	-181.19781	1477.49377	517.78088	-287.95938	1681.71643	315.17773	-156.55055	1567.85559	330.67789	-302.08893	1565.11853	510.80136	-195.73912	1437.11560	228.29977	-440.83896	1423.34021	448.63815	-271.36847	1312.79858	387.70148	-403.99020	1424.47583	267.81305	-128.62787	1084.46191	130.09929	-568.46588	1115.02380	520.54163	-120.47193	843.82550	107.49388	-504.75964	907.09344	632.87909	-196.62866	1019.58972	363.61646	-303.17581	987.98517	443.33780	-391.00479	937.83948	186.68614	-102.83512	474.12054	333.89655	-477.13940	512.59320	382.48636	-66.88737	125.62780	390.19727	-612.62231	206.74721	232.00522	
188	1.870	-174.00066	1478.74988	523.56323	-280.82138	1684.17139	322.74579	-149.94048	1569.49231	338.38300	-294.75424	1567.18774	518.46735	-189.76433	1439.32007	236.20193	-433.70270	1424.88403	456.00427	-263.39114	1315.32495	395.79608	-396.89987	1426.40393	275.46661	-119.26830	1086.88794	138.62228	-561.44086	1115.55603	525.34271	-109.40319	845.08093	118.69836	-498.07718	904.85229	632.78784	-190.24411	1021.78503	370.99243	-295.38120	990.51111	451.92114	-384.38071	939.60028	194.50055	-96.18079	474.41772	334.87314	-461.78012	512.48993	398.33139	-70.77341	125.49008	388.06027	-596.14966	213.74670	247.69737	
189	1.880	-166.96185	1480.67883	532.58508	-274.49057	1685.96924	330.85846	-143.54935	1571.64636	345.49588	-288.35638	1569.07251	526.53809	-182.75562	1440.80591	244.04713	-427.91339	1426.81567	464.15460	-257.63651	1317.08777	404.07169	-390.49631	1428.82019	283.16022	-109.02498	1089.32507	147.49054	-555.15338	1116.69189	530.08594	-97.90312	848.16437	131.73866	-491.30206	902.37299	632.05139	-183.13876	1023.45776	377.35822	-288.06915	991.87439	459.56537	-378.11792	941.82495	201.36993	-89.68829	475.15860	335.73450	-446.64334	514.08002	415.78650	-74.12370	125.19534	386.43631	-579.19550	219.75702	264.41721	
190	1.890	-160.33264	1481.46057	536.61243	-267.25952	1687.77283	338.38464	-137.13371	1573.58594	352.34222	-281.18491	1570.54810	533.92004	-176.50774	1443.13464	252.01712	-421.59943	1428.73010	471.76257	-250.93347	1319.56543	412.05804	-383.72937	1430.66516	290.57837	-98.19344	1091.76147	156.93988	-548.94342	1117.62463	534.35968	-85.87486	850.28656	145.23004	-485.32248	899.77051	631.77887	-176.48256	1025.31189	384.52954	-281.77078	993.92523	466.00418	-371.43091	944.33990	208.17279	-83.60382	475.62949	336.84280	-430.66861	515.25775	433.37305	-77.66263	123.78038	385.10086	-560.41132	226.09978	281.29800	
191	1.900	-153.42712	1484.44592	548.10822	-261.41827	1689.82202	346.30972	-130.30971	1575.49719	360.52322	-274.91608	1572.23523	541.80719	-169.74597	1445.02466	259.91983	-414.93683	1430.65405	478.97858	-244.92812	1321.23840	419.81473	-377.25455	1432.86707	297.76291	-88.90932	1094.88513	165.87814	-542.55603	1118.26587	538.53204	-73.08581	852.44897	158.15787	-480.49741	898.04590	630.24799	-169.85770	1027.30469	392.24875	-274.93811	996.06494	474.51981	-364.69601	946.46637	215.12003	-75.80633	476.81232	337.97784	-412.52472	518.69879	452.13263	-81.16148	122.40594	382.88205	-543.16638	231.70253	299.39508	
192	1.910	-146.98595	1485.42505	552.04944	-255.05286	1691.92896	354.24088	-124.04890	1577.56177	368.18176	-268.35059	1573.77832	549.40448	-163.13185	1447.86646	267.08374	-409.00528	1432.03040	486.02747	-238.43652	1322.84497	426.13437	-370.82028	1434.73840	305.20224	-78.33528	1097.52527	175.78471	-536.69141	1119.32471	542.43750	-61.33281	855.09943	172.08215	-475.59601	895.52179	629.58063	-163.44005	1029.64185	399.28140	-269.13284	997.72467	480.82016	-358.02844	948.26685	221.76778	-70.91159	476.48355	338.74054	-394.60815	523.52441	471.67969	-84.10350	121.75797	380.24738	-524.21729	237.29004	318.30075	
